<svg width="64" height="64" viewBox="0 0 24 24" fill="none" xmlns="http://www.w3.org/2000/svg">
  <path d="M9 2C6.24 2 4 4.24 4 7V10C4 10.55 3.55 11 3 11C2.45 11 2 11.45 2 12C2 12.55 2.45 13 3 13C3.55 13 4 13.45 4 14V17C4 19.76 6.24 22 9 22C9.55 22 10 21.55 10 21C10 20.45 9.55 20 9 20C7.34 20 6 18.66 6 17V14C6 12.9 5.1 12 4 12C5.1 12 6 11.1 6 10V7C6 5.34 7.34 4 9 4C9.55 4 10 3.55 10 3C10 2.45 9.55 2 9 2ZM21 11C20.45 11 20 10.55 20 10V7C20 4.24 17.76 2 15 2C14.45 2 14 2.45 14 3C14 3.55 14.45 4 15 4C16.66 4 18 5.34 18 7V10C18 11.1 18.9 12 20 12C18.9 12 18 12.9 18 14V17C18 18.66 16.66 20 15 20C14.45 20 14 20.45 14 21C14 21.55 14.45 22 15 22C17.76 22 20 19.76 20 17V14C20 13.45 20.45 13 21 13C21.55 13 22 12.55 22 12C22 11.45 21.55 11 21 11Z" fill="#00A7FF"/>
</svg>



